<svg width="14" height="14" viewBox="0 0 14 14" fill="none" xmlns="http://www.w3.org/2000/svg">
<path d="M13 7C13 5.4087 12.3679 3.88258 11.2426 2.75736C10.1174 1.63214 8.5913 1 7 1M13 7H1M13 7C13 8.5913 12.3679 10.1174 11.2426 11.2426C10.1174 12.3679 8.5913 13 7 13M7 1C5.4087 1 3.88258 1.63214 2.75736 2.75736C1.63214 3.88258 1 5.4087 1 7M7 1C6.67568 1 4.40541 3.68605 4.40541 7C4.40541 10.3139 6.67568 13 7 13M7 1C7.32432 1 9.5946 3.68605 9.5946 7C9.5946 10.3139 7.32432 13 7 13M1 7C1 8.5913 1.63214 10.1174 2.75736 11.2426C3.88258 12.3679 5.4087 13 7 13" stroke="#ABABAB" stroke-linecap="round" stroke-linejoin="round"/>
</svg>
