<svg width="12" height="12" viewBox="0 0 12 12" fill="none" xmlns="http://www.w3.org/2000/svg">
<g clip-path="url(#clip0_4809_3096)">
<path d="M10.0002 1.33337H2.00016C1.82335 1.33337 1.65378 1.40361 1.52876 1.52864C1.40373 1.65366 1.3335 1.82323 1.3335 2.00004V10C1.3335 10.1769 1.40373 10.3464 1.52876 10.4714C1.65378 10.5965 1.82335 10.6667 2.00016 10.6667H10.0002C10.177 10.6667 10.3465 10.5965 10.4716 10.4714C10.5966 10.3464 10.6668 10.1769 10.6668 10V2.00004C10.6668 1.82323 10.5966 1.65366 10.4716 1.52864C10.3465 1.40361 10.177 1.33337 10.0002 1.33337ZM10.0002 10H2.00016V2.00004H10.0002V10Z" fill="#D9D9D9"/>
<path d="M4.8666 7.68999C4.92739 7.7294 4.99716 7.75282 5.06942 7.75807C5.14168 7.76331 5.21409 7.75021 5.27993 7.71999L8.18993 6.38665C8.26597 6.35235 8.33049 6.29684 8.37574 6.22677C8.421 6.1567 8.44507 6.07506 8.44507 5.99165C8.44507 5.90824 8.421 5.8266 8.37574 5.75653C8.33049 5.68647 8.26597 5.63095 8.18993 5.59665L5.27993 4.26332C5.21321 4.23283 5.13984 4.21978 5.0667 4.22539C4.99356 4.231 4.92303 4.25509 4.86174 4.29539C4.80045 4.3357 4.75039 4.39091 4.71626 4.45584C4.68213 4.52078 4.66504 4.59331 4.6666 4.66665V7.33332C4.66771 7.4047 4.68658 7.47468 4.72149 7.53695C4.75641 7.59922 4.80628 7.65181 4.8666 7.68999ZM5.19993 4.82332L7.76993 5.99999L5.19993 7.16999V4.82332Z" fill="#D9D9D9"/>
<path d="M2.6665 2.33337H3.33317V3.33337H2.6665V2.33337Z" fill="#D9D9D9"/>
<path d="M4.6665 2.33337H5.33317V3.33337H4.6665V2.33337Z" fill="#D9D9D9"/>
<path d="M6.6665 2.33337H7.33317V3.33337H6.6665V2.33337Z" fill="#D9D9D9"/>
<path d="M8.6665 2.33337H9.33317V3.33337H8.6665V2.33337Z" fill="#D9D9D9"/>
<path d="M2.6665 8.66663H3.33317V9.66663H2.6665V8.66663Z" fill="#D9D9D9"/>
<path d="M4.6665 8.66663H5.33317V9.66663H4.6665V8.66663Z" fill="#D9D9D9"/>
<path d="M6.6665 8.66663H7.33317V9.66663H6.6665V8.66663Z" fill="#D9D9D9"/>
<path d="M8.6665 8.66663H9.33317V9.66663H8.6665V8.66663Z" fill="#D9D9D9"/>
</g>
<defs>
<clipPath id="clip0_4809_3096">
<rect width="12" height="12" fill="white"/>
</clipPath>
</defs>
</svg>
